# xmcd
#
# Track frame offsets:
#	150
#	15678
#	29093
#	44657
#	59079
#	74432
#	91360
#	105808
#	123847
#	137913
#	153249
#	169150
#	184442
#	199097
#
# Disc length: 2872 seconds
#
# Revision: 1
# Processed by: cddbd v1.5.2PL0 Copyright (c) Steve Scherf et al.
# Submitted via: audiograbber 1.83.01
#
DISCID=cb0b360e
DTITLE=Lasse Stefanz - En bättre värld
DYEAR=2006
DGENRE=Dance Hall
TTITLE0=En bättre värld
TTITLE1=Elaine
TTITLE2=Världens lyckligaste par
TTITLE3=Jag vill inte ha dig
TTITLE4=Dom spelar vår sång
TTITLE5=Det regnar och regnar
TTITLE6=Från rum till rum
TTITLE7=Hon tror hon vet
TTITLE8=Ta vad du behöver
TTITLE9=Min röda Chevrolet
TTITLE10=Ingenting mer
TTITLE11=Lyckan inom räckhåll
TTITLE12=Du är vinden i mitt segel
TTITLE13=Septemberregn
EXTD=
EXTT0=
EXTT1=
EXTT2=
EXTT3=
EXTT4=
EXTT5=
EXTT6=
EXTT7=
EXTT8=
EXTT9=
EXTT10=
EXTT11=
EXTT12=
EXTT13=
PLAYORDER=
